PathFileType	4	(X/Y/Z)	D:\TRACE\v60_Jaco2_6-2-23\JustArmDRS_Motion1_2-platform.trc
DataRate	CameraRate	NumFrames	NumMarkers	Units	OrigDataRate	OrigDataStartFrame	OrigNumFrames
100.00	100.00	      66	5	mm	100.00	5107	      6808
Frame#	Time	Left_Front			Right_Front			Left_Aft			Right_Aft			Post			
		X1	Y1	Z1	X2	Y2	Z2	X3	Y3	Z3	X4	Y4	Z4	X5	Y5	Z5	

5107	51.060	-813.35889	-16.65286	-644.29938	756.60187	-15.15820	-649.88470	-721.28613	25.01128	489.99841	720.96014	25.13532	499.84326	-26.89507	1269.70447	-1016.74475	
5108	51.070	-814.23303	-16.31688	-644.53735	755.87842	-14.99565	-649.64508	-722.31720	24.84337	490.01105	720.06812	24.99926	499.73117	-28.16674	1270.17236	-1015.80450	
5109	51.080	-815.31696	-16.16284	-644.10504	754.85211	-14.57418	-649.71954	-722.99634	24.67587	490.05820	718.89001	24.87275	499.90381	-29.07134	1270.45276	-1015.24677	
5110	51.090	-816.14105	-15.77283	-644.02948	753.90460	-14.41520	-649.74005	-724.24957	24.57213	490.16504	717.90302	24.62284	500.12009	-29.85951	1270.87512	-1014.42664	
5111	51.100	-817.04620	-15.52147	-644.20599	752.85126	-14.22222	-649.58429	-725.04382	24.38564	490.36407	717.47180	24.41569	499.86816	-30.78076	1271.28857	-1013.89948	
5112	51.110	-817.87128	-15.15717	-644.27991	751.94781	-13.84041	-649.57306	-726.12646	24.22726	490.43289	716.30029	24.20392	499.98828	-31.99297	1271.85864	-1013.09613	
5113	51.120	-818.97186	-14.95211	-643.93329	751.15613	-13.64765	-649.60101	-727.19080	24.07057	490.49438	715.25018	24.05474	500.20700	-32.75497	1272.47876	-1012.71729	
5114	51.130	-819.93939	-14.88243	-643.63428	750.01776	-13.55291	-649.48944	-727.96136	23.95592	490.49921	714.36127	23.89283	500.10229	-33.81551	1272.70068	-1012.01044	
5115	51.140	-820.91772	-14.55180	-643.77258	748.89014	-13.09493	-649.34155	-728.71179	23.57971	490.56339	713.21619	23.52328	500.36868	-34.74988	1273.22522	-1011.75403	
5116	51.150	-821.97760	-14.19254	-643.81854	748.08411	-12.87654	-649.49365	-729.81689	23.46531	490.67624	712.35822	23.46202	500.47299	-35.32060	1273.54614	-1011.30719	
5117	51.160	-822.72485	-13.91148	-643.60321	747.39502	-12.60628	-649.25372	-730.76227	23.37021	490.79678	711.61609	23.15682	500.43195	-35.97664	1274.06213	-1010.61273	
5118	51.170	-823.45801	-13.54149	-643.50897	746.42133	-12.15578	-649.10626	-731.66998	22.90677	490.83682	710.71503	22.91044	500.54288	-37.26506	1274.57043	-1010.14716	
5119	51.180	-824.44843	-13.17387	-643.52100	745.34058	-11.88267	-649.05707	-731.95795	22.19106	491.16904	709.86926	22.63773	500.59741	-38.15260	1274.82190	-1009.46759	
5120	51.190	-825.62891	-12.69805	-643.68152	744.56989	-11.50769	-649.01904	-732.98688	22.00490	491.13025	708.84418	22.39458	500.86877	-39.09046	1275.69727	-1008.91779	
5121	51.200	-826.31750	-12.52073	-643.40387	743.63733	-11.10407	-648.99896	-733.77844	21.93797	491.06812	708.07178	22.15603	500.91049	-40.17361	1276.30225	-1007.91077	
5122	51.210	-827.04370	-12.16564	-643.26935	743.05646	-10.85999	-648.80432	-734.67865	21.66422	491.18726	707.27588	21.87898	501.09082	-41.04400	1276.87952	-1006.77209	
5123	51.220	-828.09155	-11.82165	-643.30603	741.81769	-10.26720	-648.78052	-736.07623	21.90582	491.40088	706.28516	21.74478	501.11584	-41.43412	1277.23877	-1006.02673	
5124	51.230	-829.21692	-11.25713	-643.19366	741.02753	-10.01977	-648.55035	-736.61273	21.22273	491.46140	705.32062	21.33105	501.19174	-42.99319	1277.79956	-1005.09015	
5125	51.240	-829.83990	-11.20061	-643.31488	740.29376	-9.81413	-648.63812	-737.42688	21.05982	491.51758	704.49066	21.20666	501.37137	-43.54665	1278.38208	-1004.33282	
5126	51.250	-830.58856	-10.73666	-642.92914	739.33630	-9.28439	-648.55524	-738.24457	20.74687	491.48489	703.27863	20.93947	501.48724	-44.00748	1278.94812	-1003.25098	
5127	51.260	-831.51489	-10.27080	-642.82965	738.66888	-8.89245	-648.19995	-739.15460	20.66557	491.57587	702.67755	20.61877	501.25790	-45.18626	1279.52759	-1002.30469	
5128	51.270	-832.44977	-9.82735	-642.75116	737.71851	-8.69266	-648.24817	-740.03302	20.35467	491.71146	702.23291	20.36539	501.59012	-45.75013	1279.95422	-1001.75519	
5129	51.280	-833.18317	-9.54316	-642.93243	736.92273	-8.14238	-648.18604	-740.81842	20.11210	491.87155	701.22302	20.07403	501.68140	-46.62811	1280.65369	-1001.29761	
5130	51.290	-833.80591	-9.17439	-642.58466	736.19452	-7.67847	-647.96448	-741.73596	19.78014	491.94244	700.19415	19.75945	501.83041	-47.67300	1281.16833	-1000.61676	
5131	51.300	-834.84070	-8.60209	-642.45776	735.22449	-7.34299	-647.94818	-742.61176	19.57079	491.98221	699.45154	19.46994	501.74387	-48.62446	1282.00500	-999.90546	
5132	51.310	-835.68597	-8.03693	-642.49323	734.47815	-6.88920	-647.85968	-743.17096	19.27348	492.15762	698.72803	19.32300	502.00476	-49.17852	1282.68164	-999.07587	
5133	51.320	-836.22424	-7.58000	-642.38568	733.84961	-6.43688	-647.69275	-743.97119	19.02076	492.28073	697.79639	18.91035	502.05579	-49.44844	1283.17786	-998.06488	
5134	51.330	-836.78156	-7.11491	-642.44574	733.03741	-6.02423	-647.65912	-744.88989	18.85650	492.37070	697.21045	18.63414	502.20139	-50.71370	1283.56995	-997.20538	
5135	51.340	-837.90137	-6.88341	-642.05542	732.10736	-5.84788	-647.63464	-745.60693	18.64048	492.52942	696.31970	18.36397	502.07285	-51.40585	1284.25000	-995.87268	
5136	51.350	-838.70837	-6.37388	-641.83765	731.53033	-5.42621	-647.45007	-746.28931	18.28515	492.57535	695.46002	18.20896	502.47916	-51.67935	1285.02722	-994.94110	
5137	51.360	-838.93164	-6.14018	-641.71136	730.85040	-4.94292	-647.45691	-747.19623	18.01040	492.79120	694.69495	17.81375	502.49921	-52.78419	1285.67126	-993.88733	
5138	51.370	-839.75464	-5.90553	-641.65259	730.02277	-4.60859	-647.37555	-747.94873	17.91086	492.92990	694.40485	17.53661	502.58414	-53.70928	1286.36658	-992.85742	
5139	51.380	-840.64874	-5.53947	-641.62494	729.50800	-4.23870	-647.12445	-748.49774	17.58923	493.04868	693.59796	17.15917	502.74799	-54.07996	1287.01331	-991.96368	
5140	51.390	-841.59094	-4.99455	-641.44818	728.78815	-3.73266	-647.02893	-749.04779	17.17322	493.12000	692.71069	16.90638	502.97034	-54.59745	1287.55676	-991.04950	
5141	51.400	-842.12451	-4.74371	-641.52240	727.95221	-3.31841	-647.09509	-749.71838	16.93176	493.29321	692.15222	16.49186	503.07697	-55.43962	1288.24341	-990.49780	
5142	51.410	-842.75012	-4.13841	-641.54810	727.36273	-2.79763	-646.96338	-750.59674	16.61421	493.51288	691.86096	16.16323	503.13370	-56.31898	1288.97278	-989.42529	
5143	51.420	-843.15814	-3.40995	-641.59930	727.04553	-2.35414	-646.63501	-751.19214	16.26406	493.59003	690.94238	15.84955	503.25177	-56.58176	1289.72266	-988.73975	
5144	51.430	-843.52448	-2.73001	-641.33722	726.20325	-2.00207	-646.66858	-751.63403	16.06343	493.67239	690.28149	15.55223	503.49713	-57.49604	1290.36719	-987.73309	
5145	51.440	-844.62927	-2.53425	-640.98206	725.62622	-1.47516	-646.50543	-752.15222	15.73912	493.78030	689.80286	15.26723	503.52100	-57.63305	1291.00500	-986.86560	
5146	51.450	-845.08826	-2.32239	-641.21490	725.07404	-1.09458	-646.38416	-752.85455	15.39408	493.89304	689.38629	14.89857	503.54074	-58.55458	1291.71887	-985.54016	
5147	51.460	-845.63159	-1.81806	-640.98175	724.70300	-0.84596	-646.21381	-753.42841	15.12741	493.95935	688.83624	14.59251	503.67297	-58.79757	1292.27271	-984.60382	
5148	51.470	-846.15204	-1.24142	-640.86646	724.01587	-0.28195	-646.18689	-753.83783	14.89626	494.05008	688.27167	14.24492	503.80634	-59.12220	1292.74292	-983.47815	
5149	51.480	-846.08820	-0.91699	-640.27350	723.58704	0.18094	-646.10400	-754.42908	14.48176	494.23099	687.74005	13.90120	503.95532	-59.93634	1293.61255	-982.33447	
5150	51.490	-846.73615	-0.55103	-640.15613	722.98553	0.76843	-646.17023	-754.99573	14.13871	494.35550	687.33368	13.60760	504.00952	-60.62918	1294.45154	-981.49347	
5151	51.500	-847.33826	0.01310	-640.26520	722.57373	1.09726	-646.10406	-755.40979	14.10840	494.39645	687.05170	13.32335	504.12387	-61.13512	1295.01306	-980.46368	
5152	51.510	-848.03687	0.77077	-640.38513	722.03253	1.58039	-645.86023	-756.00061	13.81366	494.54605	686.34070	12.91476	504.23325	-61.06712	1295.90942	-979.62653	
5153	51.520	-848.43762	1.21333	-640.49152	721.69543	2.14744	-645.60364	-756.45258	13.58063	494.58279	685.94946	12.66461	504.38022	-61.73678	1296.47791	-978.64661	
5154	51.530	-848.75189	1.66213	-640.45392	721.26831	2.72170	-645.50708	-756.79602	13.23162	494.67352	685.53296	12.40306	504.54276	-61.61230	1297.00159	-977.84906	
5155	51.540	-849.08563	2.03957	-640.32092	721.13342	2.95323	-645.49628	-756.95630	12.93645	494.83856	685.05365	12.03660	504.74963	-62.43285	1297.64258	-976.68420	
5156	51.550	-849.39386	2.48116	-640.08612	720.80945	3.35761	-645.39331	-757.30603	12.59603	495.10300	685.10675	11.74172	504.73990	-63.05619	1298.48596	-976.07922	
5157	51.560	-849.64954	2.77966	-639.84479	720.45502	3.80648	-645.34711	-757.81653	12.16137	495.20883	684.80139	11.44507	504.75262	-63.07236	1299.13708	-974.76471	
5158	51.570	-849.96997	3.10068	-639.59021	720.45844	4.09099	-645.19727	-757.94714	11.83320	495.35870	684.50574	11.02960	504.87250	-63.02610	1299.77075	-973.92175	
5159	51.580	-850.25214	3.58524	-639.79553	720.04565	4.51136	-645.10016	-758.17889	11.66706	495.51001	684.21692	10.65593	505.05020	-63.37860	1300.41394	-972.85455	
5160	51.590	-850.22839	3.95663	-639.45026	719.79919	5.31168	-645.00903	-758.31879	11.37678	495.62949	683.99725	10.39873	505.04349	-63.41992	1301.11621	-971.85553	
5161	51.600	-850.39282	4.45352	-639.19025	719.68512	5.89841	-644.76117	-758.49036	11.03171	495.76199	683.78546	10.15782	505.01566	-63.66434	1301.63538	-970.97180	
5162	51.610	-850.57666	5.16135	-639.20715	719.74866	6.12304	-644.68701	-758.58575	10.66863	495.84763	683.73132	9.81225	505.15942	-63.56505	1302.15637	-969.82782	
5163	51.620	-850.61597	5.56976	-639.08545	719.68353	6.46555	-644.50372	-758.62177	10.34279	495.88135	683.56195	9.54207	505.36850	-63.73149	1303.12292	-969.00317	
5164	51.630	-850.63446	5.98573	-639.05151	719.41821	6.82115	-644.50720	-758.71130	10.07008	495.89420	683.44580	9.29106	505.45184	-64.06232	1303.74744	-968.01447	
5165	51.640	-850.74036	6.40163	-638.94849	719.24567	7.24377	-644.39075	-758.71045	9.77672	496.02942	683.25610	9.01534	505.52570	-64.19525	1304.40161	-967.20618	
5166	51.650	-850.87982	6.82214	-638.80695	719.15338	7.57716	-644.33405	-758.76611	9.45254	496.16333	683.29254	8.59297	505.58014	-64.21780	1305.03479	-966.35028	
5167	51.660	-850.95990	7.12363	-638.70398	719.28918	8.08938	-644.12720	-758.79718	9.20450	496.26556	683.10596	8.20136	505.71329	-64.35093	1305.65967	-965.45227	
5168	51.670	-850.93518	7.43444	-638.56311	719.25616	8.69586	-644.18127	-758.87030	8.96685	496.26730	683.24597	7.82842	505.86984	-64.12755	1306.18140	-964.62988	
5169	51.680	-850.95789	7.87635	-638.50055	719.15546	9.01856	-644.13672	-758.90259	8.67625	496.40265	683.31183	7.57649	505.96271	-64.53106	1306.72046	-963.73663	
5170	51.690	-850.93744	8.57041	-638.53986	719.20013	9.37893	-644.09930	-758.87964	8.37849	496.56860	683.07635	7.47698	506.02707	-63.91879	1307.56567	-962.67670	
5171	51.700	-850.80725	9.13465	-638.53760	719.14313	9.81034	-643.95081	-758.89899	8.07412	496.62961	683.28027	7.16215	506.06458	-64.33580	1308.14014	-961.65863	
5172	51.710	-850.83081	9.41382	-638.39685	719.10425	10.30536	-643.82788	-758.93372	7.76794	496.70807	683.26178	6.83510	506.18924	-64.31373	1308.84460	-961.02246	
